<?xml version="1.0" encoding="utf-8"?>
<!-- Generator: Adobe Illustrator 19.2.1, SVG Export Plug-In . SVG Version: 6.00 Build 0)  -->
<svg version="1.1" id="Layer_1" xmlns="http://www.w3.org/2000/svg" xmlns:xlink="http://www.w3.org/1999/xlink" x="0px" y="0px"
	 viewBox="0 0 35.3 127.2" style="enable-background:new 0 0 35.3 127.2;" xml:space="preserve">
<style type="text/css">
	.st0{fill:none;stroke:#302D49;stroke-width:4;stroke-miterlimit:1;}
	.st1{fill:none;stroke:#302D49;stroke-width:3;stroke-miterlimit:1;}
	.st2{fill:none;stroke:#302D49;stroke-width:3;stroke-miterlimit:1;}
	.st3{fill:#302D49;}
</style>
<g>
	<path class="st0" d="M24.8,6c0,0-0.6,0.7-0.7,1.1c-0.1,0.5,1,1.9,1.3,2.8c0.3,0.9-1,1.3-1,1.9L28,43.4c0.8,3.4,1.7,4.6,3.4,7.8
		c1.7,3.2,2.4,4.6,2.4,11.5s0,54.1,0,54.1c0,4.1-3.8,8.9-16.1,8.9s-16.1-4.9-16.1-8.9c0,0,0-47.2,0-54.1s0.7-8.2,2.4-11.5
		c1.7-3.2,2.5-4.5,3.4-7.8l3.6-31.6c0-0.6-1.3-1-1-1.9c0.3-0.9,1.4-2.4,1.3-2.8C11,6.6,10.4,6,10.4,6H24.8z"/>
	<line class="st0" x1="26" y1="26.8" x2="9.2" y2="26.8"/>
	<path class="st1" d="M17.6,113.2c-6.9,0-10.2,1.8-11.4,3.8c1.2,2,4.5,3.8,11.4,3.8s10.2-1.8,11.4-3.8
		C27.8,115,24.5,113.2,17.6,113.2z"/>
	<path class="st2" d="M28.9,107.2c0,0,0-35.6,0-40.8H6.4c0,5.2,0,40.8,0,40.8H28.9z"/>
	<path class="st0" d="M25.5,6c0,0-0.2-1.6-0.4-2.6s-0.4-1.2-2.5-1.6c-1.9-0.3-3-0.4-5-0.4c-2,0-3.1,0-5,0.4
		c-2.1,0.4-2.3,0.6-2.5,1.6C10,4.4,9.8,6,9.8,6H25.5z"/>
	<circle class="st3" cx="12" cy="51.3" r="2.9"/>
	<circle class="st3" cx="15.6" cy="59.8" r="2.2"/>
	<circle class="st3" cx="18.2" cy="43.9" r="2.4"/>
</g>
</svg>
