<?xml version="1.0" encoding="utf-8"?>
<!-- Generator: Adobe Illustrator 19.2.1, SVG Export Plug-In . SVG Version: 6.00 Build 0)  -->
<svg version="1.1" id="Layer_1" xmlns="http://www.w3.org/2000/svg" xmlns:xlink="http://www.w3.org/1999/xlink" x="0px" y="0px"
	 viewBox="0 0 74.3 121.4" style="enable-background:new 0 0 74.3 121.4;" xml:space="preserve">
<style type="text/css">
	.st0{fill:#302D49;}
	.st1{fill:none;stroke:#302D49;stroke-width:3;stroke-miterlimit:1;}
	.st2{fill:#FFD15C;}
</style>
<g>
	<path class="st0" d="M56.1,13.1c-5,0.8-6.9,2.6-7.8,4c-1.4,2.2-1.4,5.3,0.7,7.6c1.7,1.9,3.9,2.7,5.9,2.3c3.4-0.7,7.9-2.1,9.1-6.2
		C65,17.2,62,12.1,56.1,13.1z"/>
	<line class="st1" x1="63.9" y1="30.4" x2="8.9" y2="30.4"/>
	<ellipse transform="matrix(0.8739 -0.4861 0.4861 0.8739 -3.5435 28.312)" class="st2" cx="52.8" cy="21" rx="2.5" ry="3"/>
	<line class="st1" x1="51.1" y1="25.5" x2="34.7" y2="43.7"/>
	<line class="st1" x1="73.2" y1="1" x2="60.8" y2="14.7"/>
	<path class="st1" d="M48.2,19.2h-47L31,60.9c0,0,3-1.5,3,4.9c0,4.1,0,34.9,0,37.7s-0.7,5.4-3.9,7.2c-3.1,1.7-7.4,3.3-10.2,3.8
		s-6.6,1.3-6.6,2.6c0,0.6-1.1,1.3,6.7,2.2c4.7,0.5,10.4,0.7,14.2,0.8l5.2,0c3.8-0.1,9.1-0.3,13.5-0.8c7.8-0.9,6.7-1.5,6.7-2.2
		c0-1.3-3.8-2.1-6.6-2.6c-2.8-0.5-7-2-10.2-3.8c-3.1-1.7-3.9-4.4-3.9-7.2s0-33.6,0-37.7c0-6.4,3-4.9,3-4.9l29.7-41.7h-8.3"/>
</g>
</svg>
