<?xml version="1.0" encoding="utf-8"?>
<!-- Generator: Adobe Illustrator 19.2.1, SVG Export Plug-In . SVG Version: 6.00 Build 0)  -->
<svg version="1.1" id="Layer_1" xmlns="http://www.w3.org/2000/svg" xmlns:xlink="http://www.w3.org/1999/xlink" x="0px" y="0px"
	 viewBox="0 0 52.1 52.1" style="enable-background:new 0 0 52.1 52.1;" xml:space="preserve">
<style type="text/css">
	.st0{fill:#302D49;}
</style>
<g>
	<g>
		<path class="st0" d="M26,16.2c-0.6,0-1.1-0.2-1.5-0.5c-0.4-0.4-0.5-0.8-0.5-1.4c0-0.6,0.2-1.1,0.5-1.4c0.4-0.4,0.9-0.5,1.5-0.5
			c0.6,0,1.2,0.2,1.5,0.5c0.4,0.4,0.6,0.8,0.6,1.4c0,0.6-0.2,1.1-0.6,1.4C27.2,16,26.6,16.2,26,16.2z M24.4,20.7h3.2v19.2h-3.2V20.7
			z"/>
	</g>
	<g>
		<g>
			<path class="st0" d="M26,0C11.7,0,0,11.7,0,26c0,14.4,11.7,26,26,26c14.4,0,26-11.7,26-26C52.1,11.7,40.4,0,26,0z M26,49.3
				C13.2,49.3,2.8,38.9,2.8,26C2.8,13.2,13.2,2.8,26,2.8c12.8,0,23.3,10.4,23.3,23.3C49.3,38.9,38.9,49.3,26,49.3z"/>
		</g>
	</g>
</g>
</svg>
