<?xml version="1.0" encoding="utf-8"?>
<!-- Generator: Adobe Illustrator 19.2.1, SVG Export Plug-In . SVG Version: 6.00 Build 0)  -->
<svg version="1.1" id="Layer_1" xmlns="http://www.w3.org/2000/svg" xmlns:xlink="http://www.w3.org/1999/xlink" x="0px" y="0px"
	 viewBox="0 0 46.8 61.2" style="enable-background:new 0 0 46.8 61.2;" xml:space="preserve">
<style type="text/css">
	.st0{fill:#221F1F;stroke:#000000;stroke-miterlimit:10;}
</style>
<g>
	<path class="st0" d="M23.4,0.5C10.7,0.5,0.5,10.8,0.5,23.4s22.9,37.1,22.9,37.1s22.9-24.4,22.9-37.1S36.1,0.5,23.4,0.5z M23.4,57.5
		c-2.1-2.3-6-6.8-9.9-12.1c-7.2-9.7-11-17.3-11-22.1c0-11.5,9.4-20.9,20.9-20.9s20.9,9.5,20.9,21c0,4.7-3.8,12.4-11,22.1
		C29.4,50.7,25.5,55.2,23.4,57.5z"/>
	<path class="st0" d="M23.4,11.5c-6,0-10.8,4.8-10.8,10.8s4.8,10.8,10.8,10.8s10.8-4.8,10.8-10.8C34.2,16.4,29.4,11.5,23.4,11.5z
		 M29.6,28.6c-1.6,1.6-3.8,2.6-6.2,2.6s-4.6-1-6.2-2.6c-1.6-1.6-2.6-3.8-2.6-6.2s1-4.6,2.6-6.2c1.6-1.6,3.8-2.6,6.2-2.6
		s4.6,1,6.2,2.6c1.6,1.6,2.6,3.8,2.6,6.2S31.2,27,29.6,28.6z"/>
</g>
</svg>
