<?xml version="1.0" encoding="utf-8"?>
<!-- Generator: Adobe Illustrator 19.2.1, SVG Export Plug-In . SVG Version: 6.00 Build 0)  -->
<svg version="1.1" id="Layer_1" xmlns="http://www.w3.org/2000/svg" xmlns:xlink="http://www.w3.org/1999/xlink" x="0px" y="0px"
	 viewBox="0 0 62.5 127.5" style="enable-background:new 0 0 62.5 127.5;" xml:space="preserve">
<style type="text/css">
	.st0{fill:none;stroke:#302D49;stroke-width:3;stroke-miterlimit:1;}
	.st1{fill:#302D49;}
	.st2{fill:#FFD15C;}
	.st3{fill:#302D49;stroke:#302D49;stroke-width:1.9469;stroke-linejoin:round;stroke-miterlimit:1;}
</style>
<g>
	<line class="st0" x1="14.3" y1="51.2" x2="11.1" y2="40.6"/>
	<line class="st0" x1="7.7" y1="30.8" x2="4.7" y2="21.8"/>
	<path class="st1" d="M11.1,40.9L11.1,40.9c0.4-0.1,0.7-0.2,1-0.3l0,0l0,0c1.6-0.6,2.5-1.3,3-2c1.3-1.7,1.3-4.1,0.1-6.3
		c-1.1-1.9-3-2.5-4.6-2.3c-0.7,0.1-1.4,0.2-2.2,0.3l0,0l0,0c-0.4,0.1-0.8,0.2-1.2,0.3l0,0.1l0-0.1c-0.1,0-0.2,0.1-0.4,0.1l0,0.1
		l0-0.1c-1.8,0.6-3.5,1.6-4.3,3.6c-1.1,2.9,0.9,7.3,5.8,7c0.8-0.1,1.6-0.2,2.2-0.3l0-0.1l0,0.1C10.8,40.9,10.9,40.9,11.1,40.9
		L11.1,40.9z"/>
	<ellipse transform="matrix(0.882 -0.4712 0.4712 0.882 -15.0467 9.8126)" class="st2" cx="12.1" cy="35" rx="1.8" ry="2.1"/>
	<line class="st0" x1="50.1" y1="51.9" x2="1.8" y2="51.9"/>
	<path class="st0" d="M50,40.7c0.2,0.1,0.3,0.1,0.3,0.2c0,0-6.5,73-7,76.9c-0.5,3.9,1,7-8.4,7.7c-3.7,0.3-6.2,0.4-7.9,0.5h-1.9
		c-1.7-0.1-4.3-0.2-8.1-0.5c-9.4-0.7-7.9-3.8-8.4-7.7s-7-76.9-7-76.9c-0.1-0.2,1.9-0.4,4-0.7"/>
	<path class="st0" d="M26.1,39h-4.5c-1.3,0-8.6,0.2-8.6,0.2l-2.2,0.1"/>
	<path class="st0" d="M26.2,48.9c-2.7-7.9,1.5-16.6,9.4-19.3s16.6,1.5,19.3,9.4L26.2,48.9z"/>
	<path class="st0" d="M1.5,41.2c-0.2,0.5,9.1,1.5,20.1,1.5h8.6c11,0.1,20.3-0.9,20.1-1.5"/>
	<path class="st0" d="M33.3,115.3c-3.1-0.3-5.3-0.5-6.7-0.6H25c-1.4,0.1-3.5,0.2-6.5,0.6c-3,0.3-4.6,1-5.6,2.1
		c0.9,1,2.6,1.8,5.6,2.1c3.1,0.3,5.3,0.5,6.7,0.6h1.6c1.4-0.1,3.5-0.2,6.5-0.6c3-0.3,4.6-1,5.6-2.1
		C37.9,116.3,36.2,115.6,33.3,115.3z"/>
	<path class="st0" d="M47.7,30.4L61.2,1.8c0,0-2-0.9-3,0.3c-1,1.1-1.9-0.2-3.1,0.1s-2.2,0.5-3.2,2.6c-0.9,2.1-10.8,24-10.8,24"/>
	<path class="st3" d="M36,29.4c-0.6,0-2-1.5-2-1.5s1.1-0.5,2.2-1.3c-0.9-0.1-1.5-1.1-1.5-1.1s0.9-0.4,0.8-0.7
		c-0.7,0.1-2.3-0.1-2.7-1.4c0.9-0.4,1.1-1.2,1.1-1.2c-0.9-0.1-1.6-0.9-1.5-1.7c0.7,0.3,1.3,0,1.7-0.4c-0.7-0.1-1.5-0.8-1.9-1.7
		c0,0,0.5,0,1-0.4c-1.2-0.8-1.3-1.9-1-2.2c0.6,0.5,2,0.4,2,0.4s-0.1-0.7,0-1.1c0.4,0.5,1.2,0.5,1.7,1.1c0.4,0.4,1.2,0.2,1.2,0.2
		s0.4-0.6-0.1-0.9c-0.8-0.4-1.5-1.4-1.8-1.9c-0.3-0.5-0.4-1.8-0.1-2.5c1,0,2.5,1.3,2.7,1.7c0.2,0.4,1.2,1,2,1.2
		c0-0.8-0.4-2.1-1.2-2.8c-0.8-0.7-0.4-1.8-0.4-1.8s0.1,1.1,1.9,1.5c-0.4-1,0.3-1.9,0.3-1.9s0.2,0.2,1,0.6c0-1,2-2.6,2-2.6
		s0.7,0.5,0.7,1c0.1,0.5,0.1,1.1,0.4,1.2c0.3,0.1,0.4-0.8,0.4-0.8s0.4,0.4,0.3,0.9c0,0.5-0.7,1.7-0.7,1.7s1,0.3,1.1-0.6
		c0.1-0.8,0.6-1.1,0.6-1.1s0.7,0.5,0.7,0.9s0.2,1,0.7,0.6c0.2-0.4,0.4-0.7,1.1-0.5l-7.9,17.7L36,29.4z"/>
	<path class="st0" d="M54.2,16.7c0,0,0.8-0.2,1.2-0.1c0,1.4-2,2.9-2,2.9s0.8,0.9,1.9,0.9c-0.2,0.9-1.4,1.5-2.1,1.7
		c-0.7,0.2-0.2,1.1-0.2,1.1s-1.4,0.1-1.8-0.4"/>
</g>
</svg>
