<?xml version="1.0" encoding="utf-8"?>
<!-- Generator: Adobe Illustrator 19.2.1, SVG Export Plug-In . SVG Version: 6.00 Build 0)  -->
<svg version="1.1" id="Layer_1" xmlns="http://www.w3.org/2000/svg" xmlns:xlink="http://www.w3.org/1999/xlink" x="0px" y="0px"
	 viewBox="0 0 54 54" style="enable-background:new 0 0 54 54;" xml:space="preserve">
<style type="text/css">
	.st0{fill:#F5F6EB;stroke:#F5F6EB;stroke-width:2;stroke-miterlimit:10;}
</style>
<g>
	<path class="st0" d="M27,37.2c-5.6,0-10.2-4.6-10.2-10.2S21.3,16.7,27,16.7S37.2,21.3,37.2,27S32.6,37.2,27,37.2z M27,18.7
		c-4.6,0-8.3,3.7-8.3,8.3s3.7,8.3,8.3,8.3s8.3-3.7,8.3-8.3S31.6,18.7,27,18.7z"/>
	<path class="st0" d="M7.7,9.5l1.8-1.8l6.6,6.6c-0.6,0.5-1.2,1.1-1.8,1.8L7.7,9.5z"/>
	<path class="st0" d="M28.2,10.3c-0.4,0-0.8-0.1-1.2-0.1s-0.8,0-1.2,0.1V1h2.5V10.3z"/>
	<path class="st0" d="M39.6,16.1c-0.5-0.6-1.1-1.2-1.8-1.8l6.6-6.6l1.8,1.8L39.6,16.1z"/>
	<path class="st0" d="M1,28.2v-2.5h9.3c0,0.4-0.1,0.8-0.1,1.2s0,0.8,0.1,1.2H1z"/>
	<path class="st0" d="M33.3,35.1c0.6-0.5,1.2-1.1,1.8-1.8l11.2,11.2l-1.8,1.8L33.3,35.1z"/>
	<path class="st0" d="M7.7,44.5l6.6-6.6c0.5,0.6,1.1,1.2,1.8,1.8l-6.6,6.6L7.7,44.5z"/>
	<path class="st0" d="M43.7,28.2c0-0.4,0.1-0.8,0.1-1.2s0-0.8-0.1-1.2H53v2.5H43.7z"/>
	<path class="st0" d="M25.7,53v-9.3c0.4,0,0.8,0.1,1.2,0.1s0.8,0,1.2-0.1V53H25.7z"/>
</g>
</svg>
