<?xml version="1.0" standalone="no"?>
<!DOCTYPE svg PUBLIC "-//W3C//DTD SVG 20010904//EN"
 "http://www.w3.org/TR/2001/REC-SVG-20010904/DTD/svg10.dtd">
<svg version="1.0" xmlns="http://www.w3.org/2000/svg"
 width="260.000000pt" height="260.000000pt" viewBox="0 0 260.000000 260.000000"
 preserveAspectRatio="xMidYMid meet">
<metadata>
Created by potrace 1.11, written by Peter Selinger 2001-2013
</metadata>
<g transform="translate(0.000000,260.000000) scale(0.100000,-0.100000)"
fill="#000000" stroke="none">
<path d="M1566 2277 c-87 -148 -156 -279 -151 -286 3 -6 18 -16 34 -24 32 -16
30 -18 81 78 15 28 48 87 74 133 25 45 46 86 46 91 0 4 -12 14 -27 22 -16 7
-30 15 -33 16 -3 2 -14 -12 -24 -30z"/>
<path d="M983 2279 l-31 -20 91 -154 c51 -85 96 -155 102 -155 5 0 22 10 36
23 l27 22 -92 153 c-50 83 -93 152 -96 152 -3 0 -19 -9 -37 -21z"/>
<path d="M1264 2138 l1 -133 30 0 c17 -1 35 0 40 2 7 2 11 52 11 133 l-1 130
-41 0 -42 0 2 -132z"/>
<path d="M1674 2003 c-43 -25 -95 -55 -115 -67 l-37 -21 19 -37 19 -37 115 67
c63 37 115 70 115 74 0 4 -8 21 -18 37 l-18 30 -80 -46z"/>
<path d="M839 2003 c-25 -41 -33 -31 73 -90 32 -17 77 -44 102 -58 l45 -26 16
31 c21 40 16 53 -29 74 -20 9 -69 37 -110 61 l-75 44 -22 -36z"/>
<path d="M415 1888 c-16 -51 -44 -113 -62 -138 -56 -78 -75 -128 -80 -209 -2
-42 -9 -94 -15 -116 -7 -22 -12 -42 -13 -45 -3 -16 -128 -398 -135 -415 -12
-26 -101 -304 -106 -330 -16 -75 41 -150 171 -224 119 -68 223 -101 342 -107
88 -4 125 17 164 91 14 28 90 176 169 330 196 384 206 403 262 462 54 58 76
102 84 166 3 23 10 58 16 77 12 40 86 190 93 190 16 0 96 -187 105 -246 14
-86 32 -123 90 -187 60 -67 58 -65 256 -452 206 -405 194 -384 226 -408 34
-25 110 -33 179 -17 30 6 64 14 77 16 70 14 214 86 287 144 93 74 98 129 29
330 -25 74 -47 143 -49 152 -2 9 -35 113 -73 230 -39 117 -75 229 -81 248 -6
20 -13 71 -14 115 -4 84 -17 121 -67 185 -36 47 -52 81 -80 173 -13 42 -28 77
-33 77 -5 0 -61 -22 -126 -49 -64 -26 -254 -105 -422 -175 l-305 -127 -50 21
c-27 12 -58 25 -69 30 -11 4 -36 15 -55 23 -37 16 -216 90 -497 206 -94 39
-175 71 -180 71 -4 0 -21 -42 -38 -92z"/>
</g>
</svg>
