<?xml version="1.0" encoding="utf-8"?>
<!-- Generator: Adobe Illustrator 19.2.1, SVG Export Plug-In . SVG Version: 6.00 Build 0)  -->
<svg version="1.1" id="Layer_1" xmlns="http://www.w3.org/2000/svg" xmlns:xlink="http://www.w3.org/1999/xlink" x="0px" y="0px"
	 viewBox="0 0 499.1 78.2" style="enable-background:new 0 0 499.1 78.2;" xml:space="preserve">
<style type="text/css">
	.st0{fill:#7BC9C3;stroke:#302D49;stroke-width:3;stroke-miterlimit:10;}
	.st1{fill:#F5F6EB;stroke:#302D49;stroke-width:2.6479;stroke-miterlimit:5;}
	.st2{fill:#302D49;stroke:#302D49;stroke-width:2.7213;stroke-miterlimit:1;}
</style>
<g>
	<polygon class="st0" points="11.4,10.3 64.1,10.3 64.1,76.7 11.4,76.7 27.6,43.6 	"/>
	<polygon class="st0" points="487.7,10.3 435,10.3 435,76.7 487.7,76.7 471.5,43.6 	"/>
	<rect x="32" y="1.5" class="st0" width="434.9" height="66.4"/>
	<g>
		<g>
			<path class="st1" d="M150.5,15c0-0.3,0.1-0.5,0.2-0.7c0.2-0.2,0.4-0.2,0.7-0.2h20.8c0.6,0,0.9,0.3,0.9,0.9v5.7
				c0,0.6-0.3,0.9-0.9,0.9h-6.6v31.2c0,0.6-0.3,0.9-0.9,0.9h-5.9c-0.6,0-0.9-0.3-0.9-0.9V21.6h-6.6c-0.3,0-0.5-0.1-0.7-0.2
				c-0.2-0.2-0.2-0.4-0.2-0.7L150.5,15L150.5,15z"/>
			<path class="st1" d="M180.5,52.8V15c0-0.6,0.3-0.9,1-0.9h5.8c0.3,0,0.5,0.1,0.7,0.2c0.2,0.2,0.2,0.4,0.2,0.7v15.3h7.2V15
				c0-0.3,0.1-0.5,0.2-0.7c0.2-0.2,0.4-0.2,0.7-0.2h5.8c0.6,0,1,0.3,1,0.9v37.7c0,0.6-0.3,0.9-1,0.9h-5.8c-0.3,0-0.5-0.1-0.7-0.2
				c-0.2-0.2-0.2-0.4-0.2-0.7v-15h-7.2v15c0,0.3-0.1,0.5-0.2,0.7c-0.2,0.2-0.4,0.2-0.7,0.2h-5.8C180.8,53.7,180.5,53.4,180.5,52.8z"
				/>
			<path class="st1" d="M211.5,52.8V15c0-0.3,0.1-0.5,0.2-0.7s0.4-0.2,0.6-0.2h20.8c0.6,0,0.9,0.3,0.9,0.9v5.7c0,0.6-0.3,1-0.9,1
				h-14v8.7h10.6c0.6,0,0.9,0.3,0.9,1V37c0,0.6-0.3,1-0.9,1h-10.6v8.4h14c0.3,0,0.6,0.1,0.7,0.2c0.1,0.1,0.2,0.4,0.2,0.7V53
				c0,0.6-0.3,0.9-0.9,0.9h-20.8c-0.3,0-0.5-0.1-0.6-0.2S211.5,53,211.5,52.8z"/>
			<path class="st1" d="M257.2,45.5v-3.7c0-0.6,0.3-0.9,0.9-0.9h5.7c0.6,0,0.9,0.3,0.9,0.9v2.4c0,1.5,0.8,2.3,2.3,2.3h3
				c1.5,0,2.3-0.8,2.3-2.3v-5.7l-13.5-4.4c-1-0.3-1.5-1-1.5-2.1v-9.8c0-2.6,0.7-4.7,2.1-6.1s3.4-2.1,6-2.1h6.3
				c2.7,0,4.7,0.7,6.1,2.1s2.1,3.4,2.1,6.1V26c0,0.6-0.3,0.9-0.9,0.9h-5.7c-0.3,0-0.5-0.1-0.7-0.2c-0.2-0.2-0.2-0.4-0.2-0.7v-2.4
				c0-1.5-0.8-2.2-2.3-2.2H267c-0.7,0-1.3,0.2-1.7,0.6c-0.4,0.4-0.6,0.9-0.6,1.7v4.9l13.6,4.4c1,0.3,1.4,1,1.4,2.1v10.6
				c0,2.7-0.7,4.7-2.1,6.1c-1.4,1.4-3.4,2.1-6.1,2.1h-6.3c-2.6,0-4.6-0.7-6-2.1C257.9,50.2,257.2,48.2,257.2,45.5z"/>
			<path class="st1" d="M287.7,45.5V15.2c0-0.3,0.1-0.6,0.3-0.8s0.5-0.3,0.8-0.3h5.4c0.3,0,0.6,0.1,0.8,0.3s0.3,0.5,0.3,0.8V44
				c0,1.5,0.8,2.3,2.3,2.3h2.9c1.5,0,2.3-0.8,2.3-2.3V15.2c0-0.3,0.1-0.6,0.3-0.8s0.5-0.3,0.8-0.3h5.2c0.3,0,0.6,0.1,0.8,0.3
				s0.3,0.5,0.3,0.8v30.3c0,2.7-0.7,4.7-2.1,6.1c-1.4,1.4-3.4,2.1-6.1,2.1h-6.3c-2.7,0-4.7-0.7-6.1-2.1
				C288.4,50.2,287.7,48.2,287.7,45.5z"/>
			<path class="st1" d="M318.8,52.8V15c0-0.3,0.1-0.5,0.2-0.7c0.2-0.2,0.4-0.2,0.7-0.2h4.5c0.5,0,0.8,0.2,1,0.7l10.6,21.6V15
				c0-0.6,0.3-0.9,0.9-0.9h5.3c0.3,0,0.5,0.1,0.7,0.2c0.2,0.2,0.2,0.4,0.2,0.7v37.7c0,0.3-0.1,0.5-0.2,0.7c-0.2,0.2-0.4,0.2-0.7,0.2
				h-4.5c-0.5,0-0.8-0.2-1-0.7l-10.6-21.6v21.4c0,0.6-0.3,0.9-0.9,0.9h-5.3c-0.3,0-0.5-0.1-0.7-0.2C318.9,53.3,318.8,53,318.8,52.8z
				"/>
		</g>
	</g>
	<polygon class="st2" points="32,67.9 64.1,76.7 64.1,67.9 	"/>
	<polygon class="st2" points="467.1,67.9 435,76.7 435,67.9 	"/>
</g>
</svg>
