<?xml version="1.0" encoding="utf-8"?>
<!-- Generator: Adobe Illustrator 19.2.1, SVG Export Plug-In . SVG Version: 6.00 Build 0)  -->
<svg version="1.1" id="Layer_1" xmlns="http://www.w3.org/2000/svg" xmlns:xlink="http://www.w3.org/1999/xlink" x="0px" y="0px"
	 viewBox="0 0 97.5 44.4" style="enable-background:new 0 0 97.5 44.4;" xml:space="preserve">
<style type="text/css">
	.st0{fill:#F5F6EB;stroke:#302D49;stroke-width:3;stroke-miterlimit:10;}
</style>
<path class="st0" d="M91.3,33.5h-8.7c-0.4-2.4-2.5-4.1-5-4.1c-1,0-1.9,0.3-2.7,0.8c0.2-0.8,0.2-1.5,0.2-2.3
	c0-6.5-5.2-11.7-11.7-11.7c-1.3,0-2.6,0.2-3.8,0.6C57.9,8.1,50.2,1.5,41,1.5c-10.5,0-19,8.5-19,19c0,1,0.1,1.9,0.2,2.8
	c-1.5-1.1-3.3-1.7-5.3-1.7c-5,0-9,4-9,9c0,1,0.2,2,0.5,2.9H6.2c-2.6,0-4.7,2.1-4.7,4.7v0c0,2.6,2.1,4.7,4.7,4.7h85.1
	c2.6,0,4.7-2.1,4.7-4.7v0C96,35.7,93.9,33.5,91.3,33.5z"/>
</svg>
