<?xml version="1.0" encoding="utf-8"?>
<!-- Generator: Adobe Illustrator 19.2.1, SVG Export Plug-In . SVG Version: 6.00 Build 0)  -->
<svg version="1.1" id="Layer_1" xmlns="http://www.w3.org/2000/svg" xmlns:xlink="http://www.w3.org/1999/xlink" x="0px" y="0px"
	 viewBox="0 0 94.3 72.7" style="enable-background:new 0 0 94.3 72.7;" xml:space="preserve">
<style type="text/css">
	.st0{fill:#F5F6EB;stroke:#302D49;stroke-width:3;stroke-miterlimit:10;}
	.st1{fill:none;stroke:#302D49;stroke-width:3;stroke-miterlimit:10;}
	.st2{fill:#E9AF32;stroke:#302D49;stroke-width:3;stroke-miterlimit:10;}
	.st3{fill:#F5F6EB;}
</style>
<g>
	<g>
		<path class="st0" d="M45.1,25.3c0,0-2,3.8-2.8,6.2s0.5,5.2-4.2,9c-1,0.9-4,6.9-4,6.9S23.5,68.1,22.9,69.3
			c-0.6,1.1-1.4,1.8-3.4,1.9c-2.1,0.1-6.5-1.1-8.8-2l-0.2-0.1c-2.3-1-6.3-3.3-7.7-4.8c-1.4-1.5-1.4-2.5-1.1-3.8
			c0.4-1.2,7.6-23.4,7.6-23.4s2.1-6.3,2.1-7.7c-0.6-5.9,2.3-7.1,3.4-9.3s2.4-6.4,2.4-6.4L45.1,25.3z"/>
		<line class="st1" x1="12.3" y1="27.5" x2="42.1" y2="31.6"/>
		<path class="st2" d="M11.7,27.1c0,0.7-0.4,1.4-0.3,2.3c0.1,1.3-2.1,7.7-2.1,7.7S2.1,59.2,1.7,60.5c-0.4,1.2-0.3,2.2,1.1,3.8
			c1.4,1.5,5.4,3.9,7.7,4.8l0.2,0.1c2.3,1,6.8,2.1,8.8,2c2.1-0.1,2.8-0.8,3.4-1.9c0.6-1.1,11.2-21.9,11.2-21.9s3-6,4-6.9
			c4.7-3.7,3.4-6.6,4.2-9c0-0.1,0.1-0.2,0.1-0.2L11.7,27.1z"/>
		<path class="st1" d="M6.2,59.3c1.8-0.1,5.6,0.9,7.6,1.7l0.2,0.1c2,0.8,5.4,2.8,6.6,4.2"/>
	</g>
	<g>
		<path class="st0" d="M49.3,25.3c0,0,2,3.8,2.8,6.2c0.8,2.4-0.5,5.2,4.2,9c1,0.9,4,6.9,4,6.9s10.6,20.8,11.2,21.9
			c0.6,1.1,1.4,1.8,3.4,1.9c2.1,0.1,6.5-1.1,8.8-2l0.2-0.1c2.3-1,6.3-3.3,7.7-4.8c1.4-1.5,1.4-2.5,1.1-3.8
			C92.3,59.2,85,37.1,85,37.1s-2.1-6.3-2.1-7.7c0.6-5.9-2.3-7.1-3.4-9.3c-1.1-2.3-2.4-6.4-2.4-6.4L49.3,25.3z"/>
		<line class="st1" x1="82.1" y1="27.5" x2="52.2" y2="31.6"/>
		<path class="st2" d="M82.7,27.1c0,0.7,0.4,1.4,0.3,2.3c-0.1,1.3,2.1,7.7,2.1,7.7s7.3,22.1,7.6,23.4c0.4,1.2,0.3,2.2-1.1,3.8
			c-1.4,1.5-5.4,3.9-7.7,4.8l-0.2,0.1c-2.3,1-6.8,2.1-8.8,2c-2.1-0.1-2.8-0.8-3.4-1.9c-0.6-1.1-11.2-21.9-11.2-21.9s-3-6-4-6.9
			c-4.7-3.7-3.4-6.6-4.2-9c0-0.1-0.1-0.2-0.1-0.2L82.7,27.1z"/>
		<path class="st1" d="M88.2,59.3c-1.8-0.1-5.6,0.9-7.6,1.7l-0.2,0.1c-2,0.8-5.4,2.8-6.6,4.2"/>
	</g>
	<g>
		<line class="st1" x1="55.8" y1="15.6" x2="64" y2="10.7"/>
		<line class="st1" x1="52.1" y1="12.1" x2="58.5" y2="0.7"/>
		<line class="st1" x1="47.2" y1="10.9" x2="47.2" y2="1.5"/>
		<line class="st1" x1="42.4" y1="12.3" x2="35.7" y2="1.1"/>
		<line class="st1" x1="38.9" y1="16" x2="30.3" y2="11.1"/>
	</g>
	<circle class="st3" cx="21.6" cy="38.8" r="2.5"/>
	<circle class="st3" cx="24.8" cy="44.3" r="1.5"/>
	<circle class="st3" cx="18.3" cy="48.6" r="2"/>
	<circle class="st3" cx="76.2" cy="45" r="2.6"/>
	<circle class="st3" cx="69.7" cy="40.7" r="1.5"/>
	<circle class="st3" cx="74.6" cy="34.8" r="1.5"/>
	<circle class="st3" cx="74" cy="52.5" r="1.4"/>
</g>
</svg>
