<?xml version="1.0" encoding="utf-8"?>
<!-- Generator: Adobe Illustrator 19.2.1, SVG Export Plug-In . SVG Version: 6.00 Build 0)  -->
<svg version="1.1" id="Layer_1" xmlns="http://www.w3.org/2000/svg" xmlns:xlink="http://www.w3.org/1999/xlink" x="0px" y="0px"
	 viewBox="0 0 300.4 104.1" style="enable-background:new 0 0 300.4 104.1;" xml:space="preserve">
<style type="text/css">
	.st0{fill:#302D49;}
	.st1{opacity:0.8;}
	.st2{fill:#F5F6EB;}
</style>
<g>
	<g>
		<g>
			<path class="st0" d="M158.4,101.5c-1,0-1.8-0.4-2.4-1.1l-0.1-0.1l-12.9-12.9h0l-1.9-1.8v13.1c0,1.7-1.1,2.8-2.8,2.8h-10.8
				c-0.8,0-1.5-0.3-2-0.8c-5.1-5.1-12.7-12.7-13.3-13.3c-0.2-0.3-0.4-0.6-0.5-0.9c0.1,0.1,0.1,0.2,0.2,0.2c0.6,0.6,1.3,0.8,2.2,0.8
				h10.8c1.8,0,3-1.1,3-3V46.4l13.9,38.8c0.5,1.4,1.6,2.2,3.1,2.2h10.3c0.9,0,1.6-0.3,2.2-0.8c0.6-0.6,0.8-1.3,0.8-2.2V4.4
				c0-0.1,0-0.2,0-0.3L171,16.7c0.4,0.5,0.6,1.1,0.6,1.8v80.1c0,0.8-0.3,1.5-0.8,2c-0.5,0.5-1.2,0.8-2,0.8H158.4z M127.8,4.4
				l13.6,13.5v24.6L127.8,4.4z"/>
		</g>
		<path class="st0" d="M159.6,7.3L170,17.6c0.2,0.2,0.3,0.5,0.3,0.9v80.1c0,0.5-0.1,0.8-0.4,1.1c-0.3,0.3-0.6,0.4-1.1,0.4h-10.3
			c-0.6,0-1-0.2-1.3-0.6l-0.1-0.1l-0.1-0.1l-10.4-10.4h8.9c1.2,0,2.3-0.4,3.1-1.2c0.8-0.8,1.2-1.9,1.2-3.1V7.3 M131,9.4l7.7,7.7
			l1.4,1.3v16.4L131,9.4 M129.3,54l10.6,29.6v5.1v10c0,1-0.5,1.5-1.5,1.5h-10.8c-0.5,0-0.8-0.1-1.1-0.4c-3.4-3.4-8.1-8.1-10.9-10.9
			h9.4c2.6,0,4.3-1.7,4.3-4.3V54 M155.6,1.3h-10.8c-2.5,0-4.1,1.6-4.1,4.1v9.9L128.2,2.9c0,0-2-1.6-3.5-1.6h-10.3
			c-2.5,0-4.1,1.6-4.1,4.1v80.1c0,1,0.3,1.9,1,2.7c0,0,13.4,13.4,13.4,13.4c0.8,0.8,1.8,1.2,2.9,1.2h10.8c2.5,0,4.1-1.7,4.1-4.1v-10
			c0,0,0,0,0,0l12.5,12.4c0.8,1.1,2,1.7,3.4,1.7h10.3c1.2,0,2.2-0.4,3-1.2c0.8-0.8,1.2-1.8,1.2-3V18.5c0-1.1-0.3-2-0.9-2.7L159,2.9
			C159,2.9,157.1,1.3,155.6,1.3L155.6,1.3z M142.2,48.4h0.6V4.4c0-1.1,0.6-1.6,1.7-1.6h10.8c1.1,0,1.7,0.5,1.7,1.6v80.1
			c0,0.5-0.2,0.9-0.5,1.2c-0.3,0.3-0.7,0.5-1.2,0.5H145c-0.9,0-1.5-0.5-1.8-1.4l-16-44.5h-0.5v44.2c0,1.1-0.6,1.7-1.7,1.7h-10.8
			c-0.5,0-0.9-0.2-1.2-0.5c-0.3-0.3-0.5-0.7-0.5-1.2V4.4c0-1.1,0.6-1.6,1.7-1.6h10.3c1,0,1.6,0.4,1.9,1.3L142.2,48.4L142.2,48.4z"/>
	</g>
	<g>
		<g>
			<path class="st0" d="M43.4,5.9c-3-3-7.4-4.5-12.9-4.5H5.4C3,1.3,1.3,3,1.3,5.4v80.1c0,1.2,0.4,2.2,1.2,3l13.1,13.1
				c0.8,0.8,1.8,1.2,3,1.2h10.8c2.5,0,4.1-1.7,4.1-4.1V74.8h10.1c5.5,0,9.9-1.5,12.9-4.6c3-3,4.6-7.4,4.6-12.9V31.9
				c0-5.6-1.5-9.9-4.5-12.9C54.3,16.7,45.7,8.1,43.4,5.9z M45.2,43.2c0,4.9-1.3,8.6-3.8,11.2c-2.6,2.6-6.3,3.9-11.2,3.9H17.7v26.3
				c0,1.1-0.6,1.7-1.7,1.7H5.1c-0.5,0-0.9-0.2-1.2-0.5c-0.3-0.3-0.5-0.7-0.5-1.2V4.4c0-1.1,0.6-1.6,1.7-1.6h25.1
				c4.9,0,8.7,1.3,11.2,3.8c2.5,2.5,3.8,6.3,3.8,11.2V43.2z"/>
		</g>
		<g class="st1">
			<path class="st0" d="M47.5,13.7l7.2,7.2c2.5,2.5,3.8,6.2,3.8,11.1v25.4c0,4.8-1.3,8.5-3.8,11c-2.5,2.5-6.2,3.8-11,3.8H33.6h-2.6
				v2.6v23.8c0,1-0.5,1.5-1.5,1.5H18.6c-0.5,0-0.8-0.1-1.1-0.4L6.6,88.8H16c2.6,0,4.3-1.7,4.3-4.3V60.9h9.9c5.6,0,10-1.6,13-4.6
				c3.1-3.1,4.6-7.5,4.6-13V17.8C47.9,16.3,47.8,15,47.5,13.7 M30.5,1.3H5.4C3,1.3,1.3,3,1.3,5.4v80.1c0,1.2,0.4,2.2,1.2,3
				l13.1,13.1c0.8,0.8,1.8,1.2,3,1.2h10.8c2.5,0,4.1-1.7,4.1-4.1V74.8h10.1c5.5,0,9.9-1.5,12.9-4.6c3-3,4.6-7.4,4.6-12.9V31.9
				c0-5.6-1.5-9.9-4.5-12.9C54.3,16.7,45.7,8.1,43.4,5.9C40.4,2.8,36.1,1.3,30.5,1.3L30.5,1.3z M5.1,86.2c-0.5,0-0.9-0.2-1.2-0.5
				c-0.3-0.3-0.5-0.7-0.5-1.2V4.4c0-1.1,0.6-1.6,1.7-1.6h25.1c4.9,0,8.7,1.3,11.2,3.8c2.5,2.5,3.8,6.3,3.8,11.2v25.4
				c0,4.9-1.3,8.6-3.8,11.2c-2.6,2.6-6.3,3.9-11.2,3.9H17.7v26.3c0,1.1-0.6,1.7-1.7,1.7H5.1L5.1,86.2z"/>
		</g>
	</g>
	<g>
		<g>
			<path class="st0" d="M84.2,101.5c-0.9,0-1.6-0.3-2.1-0.8C77,95.5,69.5,88,68.9,87.3c-0.2-0.2-0.3-0.5-0.4-0.8
				c0.5,0.6,1.3,1,2.4,1h10.8c0.9,0,1.6-0.3,2.2-0.8c0.6-0.6,0.8-1.3,0.8-2.2V4.4c0-0.1,0-0.2,0-0.3L97,16.4
				c0.1,0.1,0.2,0.2,0.3,0.2c0.3,0.6,0.7,1.5,0.7,1.9v80.1c0,0.8-0.3,1.5-0.8,2c-0.5,0.5-1.2,0.8-2,0.8H84.2z"/>
		</g>
		<path class="st0" d="M85.9,7.3l10.1,10l0,0l0.1,0.1c0,0,0,0,0,0c0.2,0.4,0.4,0.9,0.4,1.1v80.1c0,0.5-0.1,0.8-0.4,1.1
			c-0.3,0.3-0.6,0.4-1.1,0.4H84.2c-0.5,0-0.9-0.1-1.1-0.4l0,0l0,0c-3.4-3.4-8-8-10.8-10.8h9.4c1.2,0,2.3-0.4,3.1-1.2
			c0.8-0.8,1.2-1.9,1.2-3.1V7.3 M81.9,1.3H71.1C68.6,1.3,67,3,67,5.4v80.1c0,1.1,0.3,2,0.9,2.7c0,0,13.3,13.3,13.3,13.3
			c0.7,0.8,1.8,1.3,3.1,1.3h10.8c1.2,0,2.2-0.4,3-1.2c0.8-0.8,1.2-1.8,1.2-3V18.5c0-1.1-0.9-2.7-0.9-2.7s-0.3-0.3-0.4-0.4L85.4,3.1
			C84.7,2,83.5,1.3,81.9,1.3L81.9,1.3z M70.8,86.2c-1.1,0-1.7-0.6-1.7-1.7V4.4c0-1.1,0.6-1.6,1.7-1.6h10.8c1.1,0,1.7,0.5,1.7,1.6
			v80.1c0,0.5-0.2,0.9-0.5,1.2c-0.3,0.3-0.7,0.5-1.2,0.5H70.8L70.8,86.2z"/>
	</g>
	<g>
		<g>
			<path class="st0" d="M206.7,101.5c-0.9,0-1.6-0.3-2.1-0.8l-12.8-12.8c-0.1-0.2-0.3-0.5-0.5-0.9c0.5,0.4,1.2,0.6,2,0.6h10.9
				c1.8,0,3-1.1,3-3V17.8h10.8c1.8,0,3-1.1,3-3V4.4c0-0.1,0-0.2,0-0.3l12.4,12.3l0.2,0.3c0.4,0.5,0.6,1.1,0.6,1.8V29
				c0,1.7-1.1,2.8-2.8,2.8h-10.9v66.9c0,1.7-1.1,2.8-2.8,2.8H206.7z M179.8,18.7c-0.8,0-1.5-0.3-2-0.8c-0.3-0.3-0.5-0.7-0.7-1.1
				c0.1,0.1,0.1,0.2,0.2,0.3c0.5,0.6,1.3,0.8,2.2,0.8h10.8v0.8H179.8z"/>
		</g>
		<path class="st0" d="M222.2,7.2l10,10l0.3,0.3c0.2,0.2,0.3,0.6,0.3,1V29c0,1-0.5,1.5-1.5,1.5h-9.6H219v2.6v65.5
			c0,1-0.5,1.5-1.4,1.5h-10.9c-0.4,0-0.8-0.1-1.2-0.4l-10.9-10.9h9.5c2.6,0,4.3-1.7,4.3-4.3V19.1h9.4c2.6,0,4.3-1.7,4.3-4.3V7.2
			 M218.2,1.3h-38.4c-2.5,0-4.1,1.6-4.1,4.1v10.4c0,1.2,0.4,2.2,1.2,3c0.8,0.8,1.8,1.2,3,1.2h9.6v65.5c0,1,1.2,3.1,1.4,3.2
			l12.8,12.9c0.7,0.7,1.8,1.2,3,1.2h10.9c2.4,0,4.1-1.7,4.1-4.1V33.1h9.6c2.5,0,4.1-1.7,4.1-4.1V18.5c0-1.1-0.3-2-0.9-2.7l0.1,0
			l-13-12.9C221.6,2.9,219.6,1.3,218.2,1.3L218.2,1.3z M179.5,16.5c-0.5,0-0.9-0.2-1.2-0.5c-0.3-0.3-0.5-0.7-0.5-1.2V4.4
			c0-1.1,0.6-1.6,1.7-1.6h38.4c1.1,0,1.7,0.5,1.7,1.6v10.4c0,1.1-0.6,1.7-1.7,1.7h-12.1v68c0,1.1-0.5,1.7-1.6,1.7h-10.9
			c-1.1,0-1.7-0.6-1.7-1.7v-68H179.5L179.5,16.5z"/>
	</g>
	<g>
		<g>
			<path class="st0" d="M269.9,101.5c-5.1,0-9.2-1.4-12-4.2c-1.2-1.2-4-4-6.8-6.8c-2.6-2.6-5.2-5.2-6.3-6.3c-1.1-1-1.9-2.3-2.6-3.7
				c0.6,1,1.3,2,2.1,2.8c2.8,2.8,6.9,4.2,12.1,4.2h11.7c5.3,0,9.3-1.4,12.1-4.2c2.8-2.8,4.2-6.9,4.2-12.1V47.1c0-0.2,0-0.3,0-0.4
				l0.1,0.6c0,0.3,0.1,0.6,0.1,0.8v5l9.8,3.2c2.2,0.9,3.4,2.6,3.4,4.9v24.1c0,5.2-1.4,9.2-4.2,12c-2.8,2.8-6.8,4.2-12,4.2H269.9z
				 M259.8,71.1c-2.1,0-2.9-0.8-2.9-2.9v-8c0-1.8-1.1-3-3-3h-0.2l0-0.4c0-0.1,0-0.2,0-0.3v-5.1l-9.5-3.1c-1.6-0.5-2.7-1.5-3.3-2.9
				c0.6,1,1.6,1.7,2.9,2.1l23.8,7.8v12.9c0,2.1-0.8,2.9-2.9,2.9H259.8z M284.4,45.8c-0.4-1.7-1.5-3-3.4-3.8l-24-7.9V20.7
				c0-1,0.2-1.7,0.7-2.1s1.2-0.7,2.1-0.7h5c2.1,0,2.9,0.8,2.9,2.9v8.1c0,1.8,1.1,2.9,3,2.9h10.8c1.8,0,3-1.1,3-2.9V17.8
				c0-3.4-0.6-6.4-1.8-8.8l10.9,10.9c2.8,2.8,4.2,6.8,4.2,12V43c0,1.7-1.1,2.8-2.8,2.8L284.4,45.8L284.4,45.8z"/>
		</g>
		<path class="st0" d="M285.5,13.7l7.2,7.2c2.5,2.5,3.8,6.2,3.8,11.1V43c0,1-0.5,1.4-1.5,1.4h-9.1h-0.6c-0.7-1.6-2-2.9-3.9-3.7
			l-0.1,0l-0.1,0l-23-7.6V20.7c0-0.6,0.1-1,0.3-1.2c0.2-0.2,0.6-0.3,1.2-0.3h5c1.3,0,1.5,0.2,1.5,1.5v8.1c0,2.6,1.7,4.3,4.3,4.3
			h10.8c2.6,0,4.3-1.7,4.3-4.3V17.8C285.8,16.3,285.7,15,285.5,13.7 M255,52.6l11.3,3.7v12c0,1.3-0.2,1.5-1.5,1.5h-5
			c-1.3,0-1.5-0.2-1.5-1.5v-8c0-2.2-1.3-3.8-3.2-4.2V52.6 M285.8,54.9l8.1,2.7c1.7,0.7,2.6,1.9,2.6,3.7v24.1c0,4.8-1.3,8.6-3.8,11.1
			c-2.5,2.5-6.2,3.8-11.1,3.8h-11.7c-4.8,0-8.5-1.3-11-3.8c-1.2-1.2-4-4-6.8-6.8c-0.5-0.5-1-1-1.4-1.4c1.8,0.4,3.7,0.7,5.8,0.7h11.7
			c5.6,0,10-1.5,13.1-4.6c3-3,4.6-7.4,4.6-13.1V54.9 M268.5,1.3h-11.7c-5.5,0-9.8,1.5-12.9,4.6c-3,3-4.6,7.4-4.6,12.9v24.6
			c0,3,1.7,5.3,4.5,6.2l8.6,2.8v4.1c0,0.2,0,0.4,0,0.6h-9c-2.5,0-4.1,1.7-4.1,4.1v10.9c0,5.5,1.5,9.9,4.6,12.9
			c2.3,2.2,10.9,10.9,13.1,13.1c3,3,7.4,4.6,12.9,4.6h11.7c5.6,0,9.9-1.5,12.9-4.5c3-3,4.5-7.4,4.5-12.9V61.2c0-2.8-1.5-5-4.3-6.1
			l-8.9-2.9v-4.1c0-0.4,0-0.7-0.1-1h9.1c2.5,0,4.1-1.6,4.1-4.1V31.9c0-5.6-1.5-9.9-4.5-12.9c-2.2-2.2-10.9-10.9-13.1-13.1
			C278.4,2.8,274,1.3,268.5,1.3L268.5,1.3z M259.8,72.4h5c2.8,0,4.2-1.4,4.2-4.2V54.3l-24.7-8.1c-1.9-0.6-2.9-1.9-2.9-3.9V17.8
			c0-4.9,1.3-8.6,3.9-11.2c2.6-2.6,6.3-3.8,11.2-3.8h11.7c4.9,0,8.7,1.3,11.2,3.8c2.5,2.5,3.8,6.3,3.8,11.2v11.1
			c0,1.1-0.6,1.6-1.7,1.6h-10.8c-1.1,0-1.7-0.5-1.7-1.6v-8.1c0-2.8-1.4-4.2-4.2-4.2h-5c-1.3,0-2.4,0.4-3.1,1.1
			c-0.7,0.7-1.1,1.8-1.1,3.1V35l24.8,8.1c1.8,0.7,2.8,2,2.8,3.9v24.1c0,4.9-1.3,8.7-3.8,11.2c-2.5,2.5-6.3,3.8-11.2,3.8h-11.7
			c-4.9,0-8.6-1.3-11.2-3.8c-2.6-2.6-3.9-6.3-3.9-11.2V60.2c0-1.1,0.6-1.7,1.7-1.7h10.8c1.1,0,1.7,0.6,1.7,1.7v8
			C255.6,71,257,72.4,259.8,72.4L259.8,72.4z"/>
	</g>
	<g>
		<path class="st0" d="M26.8,16.5h-9.2v28h9.2c2.8,0,4.2-1.4,4.2-4.2V20.7C31,17.9,29.6,16.5,26.8,16.5z"/>
		<g class="st1">
			<path class="st0" d="M26.8,19.1c1.3,0,1.5,0.2,1.5,1.5v19.6c0,1.3-0.2,1.5-1.5,1.5h-6.5V19.1H26.8 M26.8,16.5h-9.2v28h9.2
				c2.8,0,4.2-1.4,4.2-4.2V20.7C31,17.9,29.6,16.5,26.8,16.5L26.8,16.5z"/>
		</g>
	</g>
	<g>
		<path class="st0" d="M268.2,2.8c4.9,0,8.7,1.3,11.2,3.8c2.5,2.5,3.8,6.3,3.8,11.2v11.1c0,1.1-0.6,1.6-1.7,1.6h-10.8
			c-1.1,0-1.7-0.5-1.7-1.6v-8.1c0-2.8-1.4-4.2-4.2-4.2h-5c-1.3,0-2.4,0.4-3.1,1.1c-0.7,0.7-1.1,1.8-1.1,3.1V35l24.8,8.1
			c1.8,0.7,2.8,2,2.8,3.9v24.1c0,4.9-1.3,8.7-3.8,11.2c-2.5,2.5-6.3,3.8-11.2,3.8h-11.7c-4.9,0-8.6-1.3-11.2-3.8
			c-2.6-2.6-3.9-6.3-3.9-11.2V60.2c0-1.1,0.6-1.7,1.7-1.7h10.8c1.1,0,1.7,0.6,1.7,1.7v8c0,2.8,1.4,4.2,4.2,4.2h5
			c2.8,0,4.2-1.4,4.2-4.2V54.3l-24.7-8.1c-1.9-0.6-2.9-1.9-2.9-3.9V17.8c0-4.9,1.3-8.6,3.9-11.2c2.6-2.6,6.3-3.8,11.2-3.8H268.2
			 M217.8,2.8c1.1,0,1.7,0.5,1.7,1.6v10.4c0,1.1-0.6,1.7-1.7,1.7h-12.1v68c0,1.1-0.5,1.7-1.6,1.7h-10.9c-1.1,0-1.7-0.6-1.7-1.7v-68
			h-12.1c-0.5,0-0.9-0.2-1.2-0.5c-0.3-0.3-0.5-0.7-0.5-1.2V4.4c0-1.1,0.6-1.6,1.7-1.6H217.8 M155.3,2.8c1.1,0,1.7,0.5,1.7,1.6v80.1
			c0,0.5-0.2,0.9-0.5,1.2c-0.3,0.3-0.7,0.5-1.2,0.5H145c-0.9,0-1.5-0.5-1.8-1.4l-16-44.5h-0.5v44.2c0,1.1-0.6,1.7-1.7,1.7h-10.8
			c-0.5,0-0.9-0.2-1.2-0.5c-0.3-0.3-0.5-0.7-0.5-1.2V4.4c0-1.1,0.6-1.6,1.7-1.6h10.3c1,0,1.6,0.4,1.9,1.3l15.8,44.4h0.6V4.4
			c0-1.1,0.6-1.6,1.7-1.6H155.3 M81.6,2.8c1.1,0,1.7,0.5,1.7,1.6v80.1c0,0.5-0.2,0.9-0.5,1.2c-0.3,0.3-0.7,0.5-1.2,0.5H70.8
			c-1.1,0-1.7-0.6-1.7-1.7V4.4c0-1.1,0.6-1.6,1.7-1.6H81.6 M30.2,2.8c4.9,0,8.7,1.3,11.2,3.8c2.5,2.5,3.8,6.3,3.8,11.2v25.4
			c0,4.9-1.3,8.6-3.8,11.2c-2.6,2.6-6.3,3.9-11.2,3.9H17.7v26.3c0,1.1-0.6,1.7-1.7,1.7H5.1c-0.5,0-0.9-0.2-1.2-0.5
			c-0.3-0.3-0.5-0.7-0.5-1.2V4.4c0-1.1,0.6-1.6,1.7-1.6H30.2 M17.7,44.5h9.2c2.8,0,4.2-1.4,4.2-4.2V20.7c0-2.8-1.4-4.2-4.2-4.2h-9.2
			V44.5 M268.2,0.1h-11.7c-5.6,0-9.9,1.6-13,4.6c-3.1,3.1-4.6,7.5-4.6,13v24.6c0,3.1,1.7,5.4,4.7,6.4l22.9,7.5v12
			c0,1.3-0.2,1.5-1.5,1.5h-5c-1.3,0-1.5-0.2-1.5-1.5v-8c0-2.6-1.7-4.3-4.3-4.3h-10.8c-2.6,0-4.3,1.7-4.3,4.3v10.9
			c0,5.6,1.6,10,4.6,13.1c3.1,3.1,7.5,4.6,13,4.6h11.7c5.6,0,10-1.5,13.1-4.6c3-3,4.6-7.4,4.6-13.1V47.1c0-2.9-1.6-5.2-4.4-6.3
			l-0.1,0l-0.1,0l-23-7.6V20.7c0-0.6,0.1-1,0.3-1.2c0.2-0.2,0.6-0.3,1.2-0.3h5c1.3,0,1.5,0.2,1.5,1.5v8.1c0,2.6,1.7,4.3,4.3,4.3
			h10.8c2.6,0,4.3-1.7,4.3-4.3V17.8c0-5.6-1.5-10-4.6-13.1C278.2,1.7,273.8,0.1,268.2,0.1L268.2,0.1z M217.8,0.1h-38.4
			c-2.6,0-4.3,1.7-4.3,4.3v10.4c0,1.2,0.4,2.3,1.2,3.1c0.8,0.8,1.9,1.2,3.1,1.2h9.4v65.4c0,2.6,1.7,4.3,4.3,4.3h10.9
			c2.6,0,4.3-1.7,4.3-4.3V19.1h9.4c2.6,0,4.3-1.7,4.3-4.3V4.4C222.2,1.8,220.4,0.1,217.8,0.1L217.8,0.1z M155.3,0.1h-10.8
			c-2.6,0-4.3,1.7-4.3,4.3v30.5L128.8,3.2c-0.7-1.9-2.3-3.1-4.4-3.1h-10.3c-2.6,0-4.3,1.7-4.3,4.3v80.1c0,1.2,0.4,2.3,1.2,3.1
			c0.8,0.8,1.9,1.2,3.1,1.2h10.8c2.6,0,4.3-1.7,4.3-4.3V54l11.4,31.7c0.7,2,2.3,3.1,4.3,3.1h10.3c1.2,0,2.3-0.4,3.1-1.2
			c0.8-0.8,1.2-1.9,1.2-3.1V4.4C159.6,1.8,157.9,0.1,155.3,0.1L155.3,0.1z M81.6,0.1H70.8c-2.6,0-4.3,1.7-4.3,4.3v80.1
			c0,2.6,1.7,4.3,4.3,4.3h10.8c1.2,0,2.3-0.4,3.1-1.2c0.8-0.8,1.2-1.9,1.2-3.1V4.4C85.9,1.8,84.2,0.1,81.6,0.1L81.6,0.1z M30.2,0.1
			H5.1c-2.6,0-4.3,1.7-4.3,4.3v80.1c0,1.2,0.4,2.3,1.2,3.1c0.8,0.8,1.9,1.2,3.1,1.2H16c2.6,0,4.3-1.7,4.3-4.3V60.9h9.9
			c5.6,0,10-1.6,13-4.6c3.1-3.1,4.6-7.5,4.6-13V17.8c0-5.6-1.5-10-4.6-13.1C40.2,1.7,35.8,0.1,30.2,0.1L30.2,0.1z M20.3,19.1h6.5
			c1.3,0,1.5,0.2,1.5,1.5v19.6c0,1.3-0.2,1.5-1.5,1.5h-6.5V19.1L20.3,19.1z"/>
		<path class="st2" d="M3.5,84.5V4.4c0-1.1,0.6-1.6,1.7-1.6h25.1c4.9,0,8.7,1.3,11.2,3.8c2.5,2.5,3.8,6.3,3.8,11.2v25.4
			c0,4.9-1.3,8.6-3.8,11.2c-2.6,2.6-6.3,3.9-11.2,3.9H17.7v26.3c0,1.1-0.6,1.7-1.7,1.7H5.1c-0.5,0-0.9-0.2-1.2-0.5
			C3.6,85.4,3.5,85,3.5,84.5z M17.7,44.5h9.2c2.8,0,4.2-1.4,4.2-4.2V20.7c0-2.8-1.4-4.2-4.2-4.2h-9.2V44.5z M69.1,84.5V4.4
			c0-1.1,0.6-1.6,1.7-1.6h10.8c1.1,0,1.7,0.5,1.7,1.6v80.1c0,0.5-0.2,0.9-0.5,1.2c-0.3,0.3-0.7,0.5-1.2,0.5H70.8
			C69.7,86.2,69.1,85.6,69.1,84.5z M112.4,84.5V4.4c0-1.1,0.6-1.6,1.7-1.6h10.3c1,0,1.6,0.4,1.9,1.3l15.8,44.4h0.6V4.4
			c0-1.1,0.6-1.6,1.7-1.6h10.8c1.1,0,1.7,0.5,1.7,1.6v80.1c0,0.5-0.2,0.9-0.5,1.2c-0.3,0.3-0.7,0.5-1.2,0.5H145
			c-0.9,0-1.5-0.5-1.8-1.4l-16-44.5h-0.5v44.2c0,1.1-0.6,1.7-1.7,1.7h-10.8c-0.5,0-0.9-0.2-1.2-0.5C112.6,85.4,112.4,85,112.4,84.5z
			 M177.8,14.8V4.4c0-1.1,0.6-1.6,1.7-1.6h38.4c1.1,0,1.7,0.5,1.7,1.6v10.4c0,1.1-0.6,1.7-1.7,1.7h-12.1v68c0,1.1-0.5,1.7-1.6,1.7
			h-10.9c-1.1,0-1.7-0.6-1.7-1.7v-68h-12.1c-0.5,0-0.9-0.2-1.2-0.5C178,15.7,177.8,15.3,177.8,14.8z M241.4,71.2V60.2
			c0-1.1,0.6-1.7,1.7-1.7h10.8c1.1,0,1.7,0.6,1.7,1.7v8c0,2.8,1.4,4.2,4.2,4.2h5c2.8,0,4.2-1.4,4.2-4.2V54.3l-24.7-8.1
			c-1.9-0.6-2.9-1.9-2.9-3.9V17.8c0-4.9,1.3-8.6,3.9-11.2c2.6-2.6,6.3-3.8,11.2-3.8h11.7c4.9,0,8.7,1.3,11.2,3.8
			c2.5,2.5,3.8,6.3,3.8,11.2v11.1c0,1.1-0.6,1.6-1.7,1.6h-10.8c-1.1,0-1.7-0.5-1.7-1.6v-8.1c0-2.8-1.4-4.2-4.2-4.2h-5
			c-1.3,0-2.4,0.4-3.1,1.1c-0.7,0.7-1.1,1.8-1.1,3.1V35l24.8,8.1c1.8,0.7,2.8,2,2.8,3.9v24.1c0,4.9-1.3,8.7-3.8,11.2
			c-2.5,2.5-6.3,3.8-11.2,3.8h-11.7c-4.9,0-8.6-1.3-11.2-3.8C242.7,79.8,241.4,76,241.4,71.2z"/>
	</g>
</g>
</svg>
