<?xml version="1.0" encoding="utf-8"?>
<!-- Generator: Adobe Illustrator 19.2.1, SVG Export Plug-In . SVG Version: 6.00 Build 0)  -->
<svg version="1.1" id="Layer_1" xmlns="http://www.w3.org/2000/svg" xmlns:xlink="http://www.w3.org/1999/xlink" x="0px" y="0px"
	 viewBox="0 0 722.4 722.4" style="enable-background:new 0 0 722.4 722.4;" xml:space="preserve">
<style type="text/css">
	.st0{fill:none;stroke:#302D49;stroke-width:3;stroke-miterlimit:10;}
</style>
<g>
	<g>
		<line class="st0" x1="361.2" y1="361.2" x2="96.5" y2="115.4"/>
		<line class="st0" x1="361.2" y1="361.2" x2="76.1" y2="139.4"/>
		<line class="st0" x1="361.2" y1="361.2" x2="57.8" y2="165.1"/>
		<line class="st0" x1="361.2" y1="361.2" x2="41.9" y2="192.3"/>
		<line class="st0" x1="361.2" y1="361.2" x2="28.4" y2="220.8"/>
		<line class="st0" x1="361.2" y1="361.2" x2="17.4" y2="250.3"/>
		<line class="st0" x1="361.2" y1="361.2" x2="9.1" y2="280.7"/>
		<line class="st0" x1="361.2" y1="361.2" x2="3.4" y2="311.7"/>
		<line class="st0" x1="361.2" y1="361.2" x2="0.5" y2="343.1"/>
		<line class="st0" x1="361.2" y1="361.2" x2="0.3" y2="374.6"/>
		<line class="st0" x1="361.2" y1="361.2" x2="2.8" y2="406"/>
		<line class="st0" x1="361.2" y1="361.2" x2="8.1" y2="437"/>
		<line class="st0" x1="361.2" y1="361.2" x2="16" y2="467.5"/>
		<line class="st0" x1="361.2" y1="361.2" x2="26.6" y2="497.2"/>
		<line class="st0" x1="361.2" y1="361.2" x2="39.7" y2="525.9"/>
		<line class="st0" x1="361.2" y1="361.2" x2="55.3" y2="553.2"/>
		<line class="st0" x1="361.2" y1="361.2" x2="73.2" y2="579.2"/>
		<line class="st0" x1="361.2" y1="361.2" x2="93.3" y2="603.4"/>
		<line class="st0" x1="361.2" y1="361.2" x2="115.4" y2="625.9"/>
		<line class="st0" x1="361.2" y1="361.2" x2="139.4" y2="646.3"/>
		<line class="st0" x1="361.2" y1="361.2" x2="165.1" y2="664.5"/>
		<line class="st0" x1="361.2" y1="361.2" x2="192.3" y2="680.4"/>
		<line class="st0" x1="361.2" y1="361.2" x2="220.8" y2="694"/>
		<line class="st0" x1="361.2" y1="361.2" x2="250.3" y2="704.9"/>
		<line class="st0" x1="361.2" y1="361.2" x2="280.7" y2="713.3"/>
		<line class="st0" x1="361.2" y1="361.2" x2="311.7" y2="718.9"/>
		<line class="st0" x1="361.2" y1="361.2" x2="343.1" y2="721.9"/>
		<line class="st0" x1="361.2" y1="361.2" x2="374.6" y2="722.1"/>
		<line class="st0" x1="361.2" y1="361.2" x2="406" y2="719.6"/>
		<line class="st0" x1="361.2" y1="361.2" x2="437" y2="714.3"/>
		<line class="st0" x1="361.2" y1="361.2" x2="467.5" y2="706.3"/>
		<line class="st0" x1="361.2" y1="361.2" x2="497.2" y2="695.8"/>
		<line class="st0" x1="361.2" y1="361.2" x2="525.9" y2="682.6"/>
		<line class="st0" x1="361.2" y1="361.2" x2="553.2" y2="667.1"/>
		<line class="st0" x1="361.2" y1="361.2" x2="579.2" y2="649.1"/>
		<line class="st0" x1="361.2" y1="361.2" x2="603.4" y2="629.1"/>
		<line class="st0" x1="361.2" y1="361.2" x2="625.9" y2="606.9"/>
		<line class="st0" x1="361.2" y1="361.2" x2="646.3" y2="582.9"/>
		<line class="st0" x1="361.2" y1="361.2" x2="664.5" y2="557.2"/>
		<line class="st0" x1="361.2" y1="361.2" x2="680.4" y2="530"/>
		<line class="st0" x1="361.2" y1="361.2" x2="694" y2="501.6"/>
		<line class="st0" x1="361.2" y1="361.2" x2="704.9" y2="472"/>
		<line class="st0" x1="361.2" y1="361.2" x2="713.3" y2="441.7"/>
		<line class="st0" x1="361.2" y1="361.2" x2="718.9" y2="410.7"/>
		<line class="st0" x1="361.2" y1="361.2" x2="721.9" y2="379.3"/>
		<line class="st0" x1="361.2" y1="361.2" x2="722.1" y2="347.8"/>
		<line class="st0" x1="361.2" y1="361.2" x2="719.6" y2="316.4"/>
		<line class="st0" x1="361.2" y1="361.2" x2="714.3" y2="285.3"/>
		<line class="st0" x1="361.2" y1="361.2" x2="706.3" y2="254.8"/>
		<line class="st0" x1="361.2" y1="361.2" x2="695.8" y2="225.1"/>
		<line class="st0" x1="361.2" y1="361.2" x2="682.6" y2="196.5"/>
		<line class="st0" x1="361.2" y1="361.2" x2="667.1" y2="169.1"/>
		<line class="st0" x1="361.2" y1="361.2" x2="649.1" y2="143.2"/>
		<line class="st0" x1="361.2" y1="361.2" x2="629.1" y2="118.9"/>
		<line class="st0" x1="361.2" y1="361.2" x2="606.9" y2="96.5"/>
		<line class="st0" x1="361.2" y1="361.2" x2="582.9" y2="76.1"/>
		<line class="st0" x1="361.2" y1="361.2" x2="557.2" y2="57.8"/>
		<line class="st0" x1="361.2" y1="361.2" x2="530" y2="41.9"/>
		<line class="st0" x1="361.2" y1="361.2" x2="501.6" y2="28.4"/>
		<line class="st0" x1="361.2" y1="361.2" x2="472" y2="17.4"/>
		<line class="st0" x1="361.2" y1="361.2" x2="441.7" y2="9.1"/>
		<line class="st0" x1="361.2" y1="361.2" x2="410.7" y2="3.4"/>
		<line class="st0" x1="361.2" y1="361.2" x2="379.3" y2="0.5"/>
		<line class="st0" x1="361.2" y1="361.2" x2="347.8" y2="0.3"/>
		<line class="st0" x1="361.2" y1="361.2" x2="316.4" y2="2.8"/>
		<line class="st0" x1="361.2" y1="361.2" x2="285.3" y2="8.1"/>
		<line class="st0" x1="361.2" y1="361.2" x2="254.8" y2="16"/>
		<line class="st0" x1="361.2" y1="361.2" x2="225.1" y2="26.6"/>
		<line class="st0" x1="361.2" y1="361.2" x2="196.5" y2="39.7"/>
		<line class="st0" x1="361.2" y1="361.2" x2="169.1" y2="55.3"/>
		<line class="st0" x1="361.2" y1="361.2" x2="143.2" y2="73.2"/>
		<line class="st0" x1="361.2" y1="361.2" x2="118.9" y2="93.3"/>
	</g>
	<g>
		<line class="st0" x1="361.2" y1="361.2" x2="106.9" y2="104.7"/>
		<line class="st0" x1="361.2" y1="361.2" x2="85.5" y2="127.9"/>
		<line class="st0" x1="361.2" y1="361.2" x2="66.2" y2="152.8"/>
		<line class="st0" x1="361.2" y1="361.2" x2="49.2" y2="179.3"/>
		<line class="st0" x1="361.2" y1="361.2" x2="34.5" y2="207.2"/>
		<line class="st0" x1="361.2" y1="361.2" x2="22.3" y2="236.2"/>
		<line class="st0" x1="361.2" y1="361.2" x2="12.7" y2="266.2"/>
		<line class="st0" x1="361.2" y1="361.2" x2="5.8" y2="297"/>
		<line class="st0" x1="361.2" y1="361.2" x2="1.5" y2="328.2"/>
		<line class="st0" x1="361.2" y1="361.2" x2="0" y2="359.7"/>
		<line class="st0" x1="361.2" y1="361.2" x2="1.2" y2="391.1"/>
		<line class="st0" x1="361.2" y1="361.2" x2="5.2" y2="422.4"/>
		<line class="st0" x1="361.2" y1="361.2" x2="11.9" y2="453.2"/>
		<line class="st0" x1="361.2" y1="361.2" x2="21.3" y2="483.3"/>
		<line class="st0" x1="361.2" y1="361.2" x2="33.2" y2="512.4"/>
		<line class="st0" x1="361.2" y1="361.2" x2="47.6" y2="540.5"/>
		<line class="st0" x1="361.2" y1="361.2" x2="64.5" y2="567.1"/>
		<line class="st0" x1="361.2" y1="361.2" x2="83.5" y2="592.2"/>
		<line class="st0" x1="361.2" y1="361.2" x2="104.7" y2="615.5"/>
		<line class="st0" x1="361.2" y1="361.2" x2="127.9" y2="636.9"/>
		<line class="st0" x1="361.2" y1="361.2" x2="152.8" y2="656.2"/>
		<line class="st0" x1="361.2" y1="361.2" x2="179.3" y2="673.2"/>
		<line class="st0" x1="361.2" y1="361.2" x2="207.2" y2="687.9"/>
		<line class="st0" x1="361.2" y1="361.2" x2="236.2" y2="700.1"/>
		<line class="st0" x1="361.2" y1="361.2" x2="266.2" y2="709.7"/>
		<line class="st0" x1="361.2" y1="361.2" x2="297" y2="716.6"/>
		<line class="st0" x1="361.2" y1="361.2" x2="328.2" y2="720.8"/>
		<line class="st0" x1="361.2" y1="361.2" x2="359.7" y2="722.4"/>
		<line class="st0" x1="361.2" y1="361.2" x2="391.1" y2="721.1"/>
		<line class="st0" x1="361.2" y1="361.2" x2="422.4" y2="717.1"/>
		<line class="st0" x1="361.2" y1="361.2" x2="453.2" y2="710.4"/>
		<line class="st0" x1="361.2" y1="361.2" x2="483.3" y2="701.1"/>
		<line class="st0" x1="361.2" y1="361.2" x2="512.4" y2="689.2"/>
		<line class="st0" x1="361.2" y1="361.2" x2="540.5" y2="674.7"/>
		<line class="st0" x1="361.2" y1="361.2" x2="567.1" y2="657.9"/>
		<line class="st0" x1="361.2" y1="361.2" x2="592.2" y2="638.8"/>
		<line class="st0" x1="361.2" y1="361.2" x2="615.5" y2="617.6"/>
		<line class="st0" x1="361.2" y1="361.2" x2="636.9" y2="594.5"/>
		<line class="st0" x1="361.2" y1="361.2" x2="656.2" y2="569.6"/>
		<line class="st0" x1="361.2" y1="361.2" x2="673.2" y2="543.1"/>
		<line class="st0" x1="361.2" y1="361.2" x2="687.9" y2="515.2"/>
		<line class="st0" x1="361.2" y1="361.2" x2="700.1" y2="486.1"/>
		<line class="st0" x1="361.2" y1="361.2" x2="709.7" y2="456.1"/>
		<line class="st0" x1="361.2" y1="361.2" x2="716.6" y2="425.4"/>
		<line class="st0" x1="361.2" y1="361.2" x2="720.8" y2="394.2"/>
		<line class="st0" x1="361.2" y1="361.2" x2="722.4" y2="362.7"/>
		<line class="st0" x1="361.2" y1="361.2" x2="721.1" y2="331.2"/>
		<line class="st0" x1="361.2" y1="361.2" x2="717.1" y2="300"/>
		<line class="st0" x1="361.2" y1="361.2" x2="710.4" y2="269.2"/>
		<line class="st0" x1="361.2" y1="361.2" x2="701.1" y2="239.1"/>
		<line class="st0" x1="361.2" y1="361.2" x2="689.2" y2="209.9"/>
		<line class="st0" x1="361.2" y1="361.2" x2="674.7" y2="181.9"/>
		<line class="st0" x1="361.2" y1="361.2" x2="657.9" y2="155.3"/>
		<line class="st0" x1="361.2" y1="361.2" x2="638.8" y2="130.2"/>
		<line class="st0" x1="361.2" y1="361.2" x2="617.6" y2="106.9"/>
		<line class="st0" x1="361.2" y1="361.2" x2="594.5" y2="85.5"/>
		<line class="st0" x1="361.2" y1="361.2" x2="569.6" y2="66.2"/>
		<line class="st0" x1="361.2" y1="361.2" x2="543.1" y2="49.2"/>
		<line class="st0" x1="361.2" y1="361.2" x2="515.2" y2="34.5"/>
		<line class="st0" x1="361.2" y1="361.2" x2="486.1" y2="22.3"/>
		<line class="st0" x1="361.2" y1="361.2" x2="456.1" y2="12.7"/>
		<line class="st0" x1="361.2" y1="361.2" x2="425.4" y2="5.8"/>
		<line class="st0" x1="361.2" y1="361.2" x2="394.2" y2="1.5"/>
		<line class="st0" x1="361.2" y1="361.2" x2="362.7" y2="0"/>
		<line class="st0" x1="361.2" y1="361.2" x2="331.2" y2="1.2"/>
		<line class="st0" x1="361.2" y1="361.2" x2="300" y2="5.2"/>
		<line class="st0" x1="361.2" y1="361.2" x2="269.2" y2="11.9"/>
		<line class="st0" x1="361.2" y1="361.2" x2="239.1" y2="21.3"/>
		<line class="st0" x1="361.2" y1="361.2" x2="209.9" y2="33.2"/>
		<line class="st0" x1="361.2" y1="361.2" x2="181.9" y2="47.6"/>
		<line class="st0" x1="361.2" y1="361.2" x2="155.3" y2="64.5"/>
		<line class="st0" x1="361.2" y1="361.2" x2="130.2" y2="83.5"/>
	</g>
</g>
</svg>
